<svg width="14" height="18" viewBox="0 0 14 18" fill="none" xmlns="http://www.w3.org/2000/svg">
<path d="M7.08 17.108C4.68 17.108 3.024 16.628 2.112 15.668C1.208 14.708 0.756 13.152 0.756 11H3.216C3.216 12.832 3.544 14.028 4.2 14.588C4.856 15.14 5.812 15.416 7.068 15.416C8.316 15.416 9.272 15.184 9.936 14.72C10.608 14.256 10.944 13.628 10.944 12.836C10.944 11.868 10.536 11.192 9.72 10.808C8.904 10.424 7.756 10.052 6.276 9.692C4.3 9.204 2.888 8.66 2.04 8.06C1.192 7.46 0.768 6.488 0.768 5.144C0.768 3.912 1.236 2.86 2.172 1.988C3.108 1.108 4.736 0.667999 7.056 0.667999C9.424 0.667999 11.064 1.16 11.976 2.144C12.896 3.12 13.356 4.632 13.356 6.68H10.896C10.896 4.896 10.556 3.732 9.876 3.188C9.204 2.636 8.256 2.36 7.032 2.36C5.784 2.36 4.824 2.596 4.152 3.068C3.48 3.532 3.144 4.136 3.144 4.88C3.144 5.816 3.552 6.484 4.368 6.884C5.192 7.284 6.332 7.66 7.788 8.012C9.812 8.508 11.248 9.04 12.096 9.608C12.944 10.168 13.368 11.132 13.368 12.5C13.368 13.796 12.908 14.888 11.988 15.776C11.068 16.664 9.432 17.108 7.08 17.108Z" fill="white"/>
</svg>
